<?xml version="1.0" standalone="no"?><svg xmlns="http://www.w3.org/2000/svg" viewBox="0 0 1440 320"><path fill="#0099ff" fill-opacity="1" d="M0,192L18.5,176C36.9,160,74,128,111,117.3C147.7,107,185,117,222,133.3C258.5,149,295,171,332,197.3C369.2,224,406,256,443,256C480,256,517,224,554,224C590.8,224,628,256,665,240C701.5,224,738,160,775,165.3C812.3,171,849,245,886,266.7C923.1,288,960,256,997,224C1033.8,192,1071,160,1108,165.3C1144.6,171,1182,213,1218,192C1255.4,171,1292,85,1329,90.7C1366.2,96,1403,192,1422,240L1440,288L1440,320L1421.5,320C1403.1,320,1366,320,1329,320C1292.3,320,1255,320,1218,320C1181.5,320,1145,320,1108,320C1070.8,320,1034,320,997,320C960,320,923,320,886,320C849.2,320,812,320,775,320C738.5,320,702,320,665,320C627.7,320,591,320,554,320C516.9,320,480,320,443,320C406.2,320,369,320,332,320C295.4,320,258,320,222,320C184.6,320,148,320,111,320C73.8,320,37,320,18,320L0,320Z"></path></svg>